<svg width="277" height="40" viewBox="0 0 277 40" fill="none" xmlns="http://www.w3.org/2000/svg">
<g clip-path="url(#clip0)">
<path d="M61.82 30V16.112H64.984L65.264 18.464C65.6933 17.6427 66.3093 16.9893 67.112 16.504C67.9333 16.0187 68.8947 15.776 69.996 15.776C71.7133 15.776 73.048 16.3173 74 17.4C74.952 18.4827 75.428 20.0693 75.428 22.16V30H71.844V22.496C71.844 21.3013 71.6013 20.3867 71.116 19.752C70.6307 19.1173 69.8747 18.8 68.848 18.8C67.84 18.8 67.0093 19.1547 66.356 19.864C65.7213 20.5733 65.404 21.5627 65.404 22.832V30H61.82ZM92.2392 16.112V30H89.0752L88.7952 27.648C88.3658 28.4693 87.7405 29.1227 86.9192 29.608C86.1165 30.0933 85.1645 30.336 84.0632 30.336C82.3458 30.336 81.0112 29.7947 80.0592 28.712C79.1072 27.6293 78.6312 26.0427 78.6312 23.952V16.112H82.2152V23.616C82.2152 24.8107 82.4578 25.7253 82.9432 26.36C83.4285 26.9947 84.1845 27.312 85.2112 27.312C86.2192 27.312 87.0405 26.9573 87.6752 26.248C88.3285 25.5387 88.6552 24.5493 88.6552 23.28V16.112H92.2392ZM94.5743 30L99.6143 23.056L94.5743 16.112H98.4103L101.938 21.04L105.438 16.112H109.302L104.234 23.056L109.302 30H105.438L101.938 25.072L98.4103 30H94.5743ZM117.774 30C116.318 30 115.151 29.6453 114.274 28.936C113.396 28.2267 112.958 26.9667 112.958 25.156V19.108H110.578V16.112H112.958L113.378 12.388H116.542V16.112H120.294V19.108H116.542V25.184C116.542 25.856 116.682 26.3227 116.962 26.584C117.26 26.8267 117.764 26.948 118.474 26.948H120.21V30H117.774ZM122.195 33.108L129.195 8.244H132.695L125.667 33.108H122.195Z" fill="#003C3C"/>
<path d="M141.96 30.336C140.541 30.336 139.291 30.028 138.208 29.412C137.125 28.796 136.267 27.9373 135.632 26.836C135.016 25.7347 134.708 24.4747 134.708 23.056C134.708 21.6373 135.016 20.3773 135.632 19.276C136.267 18.1747 137.125 17.316 138.208 16.7C139.291 16.084 140.541 15.776 141.96 15.776C143.733 15.776 145.227 16.2427 146.44 17.176C147.653 18.0907 148.428 19.36 148.764 20.984H144.984C144.797 20.312 144.424 19.7893 143.864 19.416C143.323 19.024 142.679 18.828 141.932 18.828C140.943 18.828 140.103 19.2013 139.412 19.948C138.721 20.6947 138.376 21.7307 138.376 23.056C138.376 24.3813 138.721 25.4173 139.412 26.164C140.103 26.9107 140.943 27.284 141.932 27.284C142.679 27.284 143.323 27.0973 143.864 26.724C144.424 26.3507 144.797 25.8187 144.984 25.128H148.764C148.428 26.696 147.653 27.956 146.44 28.908C145.227 29.86 143.733 30.336 141.96 30.336ZM151.945 30V9.84H155.529V30H151.945ZM165.855 30.336C164.511 30.336 163.298 30.028 162.215 29.412C161.151 28.796 160.302 27.9467 159.667 26.864C159.051 25.7627 158.743 24.4933 158.743 23.056C158.743 21.6187 159.06 20.3587 159.695 19.276C160.33 18.1747 161.179 17.316 162.243 16.7C163.326 16.084 164.539 15.776 165.883 15.776C167.208 15.776 168.403 16.084 169.467 16.7C170.55 17.316 171.399 18.1747 172.015 19.276C172.65 20.3587 172.967 21.6187 172.967 23.056C172.967 24.4933 172.65 25.7627 172.015 26.864C171.399 27.9467 170.55 28.796 169.467 29.412C168.384 30.028 167.18 30.336 165.855 30.336ZM165.855 27.228C166.788 27.228 167.6 26.8827 168.291 26.192C168.982 25.4827 169.327 24.4373 169.327 23.056C169.327 21.6747 168.982 20.6387 168.291 19.948C167.6 19.2387 166.798 18.884 165.883 18.884C164.931 18.884 164.11 19.2387 163.419 19.948C162.747 20.6387 162.411 21.6747 162.411 23.056C162.411 24.4373 162.747 25.4827 163.419 26.192C164.11 26.8827 164.922 27.228 165.855 27.228ZM189.556 16.112V30H186.392L186.112 27.648C185.682 28.4693 185.057 29.1227 184.236 29.608C183.433 30.0933 182.481 30.336 181.38 30.336C179.662 30.336 178.328 29.7947 177.376 28.712C176.424 27.6293 175.948 26.0427 175.948 23.952V16.112H179.532V23.616C179.532 24.8107 179.774 25.7253 180.26 26.36C180.745 26.9947 181.501 27.312 182.528 27.312C183.536 27.312 184.357 26.9573 184.992 26.248C185.645 25.5387 185.972 24.5493 185.972 23.28V16.112H189.556ZM199.591 30.336C198.284 30.336 197.117 30.0187 196.091 29.384C195.064 28.7493 194.252 27.8813 193.655 26.78C193.057 25.6787 192.759 24.428 192.759 23.028C192.759 21.628 193.057 20.3867 193.655 19.304C194.252 18.2027 195.064 17.344 196.091 16.728C197.117 16.0933 198.284 15.776 199.591 15.776C200.636 15.776 201.551 15.972 202.335 16.364C203.119 16.756 203.753 17.3067 204.239 18.016V9.84H207.823V30H204.631L204.239 28.012C203.791 28.628 203.193 29.1693 202.447 29.636C201.719 30.1027 200.767 30.336 199.591 30.336ZM200.347 27.2C201.504 27.2 202.447 26.8173 203.175 26.052C203.921 25.268 204.295 24.2693 204.295 23.056C204.295 21.8427 203.921 20.8533 203.175 20.088C202.447 19.304 201.504 18.912 200.347 18.912C199.208 18.912 198.265 19.2947 197.519 20.06C196.772 20.8253 196.399 21.8147 196.399 23.028C196.399 24.2413 196.772 25.24 197.519 26.024C198.265 26.808 199.208 27.2 200.347 27.2ZM213.404 13.956C212.751 13.956 212.21 13.76 211.78 13.368C211.37 12.976 211.164 12.4813 211.164 11.884C211.164 11.2867 211.37 10.8013 211.78 10.428C212.21 10.036 212.751 9.84 213.404 9.84C214.058 9.84 214.59 10.036 215 10.428C215.43 10.8013 215.644 11.2867 215.644 11.884C215.644 12.4813 215.43 12.976 215 13.368C214.59 13.76 214.058 13.956 213.404 13.956ZM211.612 30V16.112H215.196V30H211.612ZM218.937 30V16.112H222.101L222.381 18.464C222.811 17.6427 223.427 16.9893 224.229 16.504C225.051 16.0187 226.012 15.776 227.113 15.776C228.831 15.776 230.165 16.3173 231.117 17.4C232.069 18.4827 232.545 20.0693 232.545 22.16V30H228.961V22.496C228.961 21.3013 228.719 20.3867 228.233 19.752C227.748 19.1173 226.992 18.8 225.965 18.8C224.957 18.8 224.127 19.1547 223.473 19.864C222.839 20.5733 222.521 21.5627 222.521 22.832V30H218.937ZM240.76 30.336C239.566 30.336 238.586 30.1493 237.82 29.776C237.055 29.384 236.486 28.8707 236.112 28.236C235.739 27.6013 235.552 26.9013 235.552 26.136C235.552 24.848 236.056 23.8027 237.064 23C238.072 22.1973 239.584 21.796 241.6 21.796H245.128V21.46C245.128 20.508 244.858 19.808 244.316 19.36C243.775 18.912 243.103 18.688 242.3 18.688C241.572 18.688 240.938 18.8653 240.396 19.22C239.855 19.556 239.519 20.06 239.388 20.732H235.888C235.982 19.724 236.318 18.8467 236.896 18.1C237.494 17.3533 238.259 16.784 239.192 16.392C240.126 15.9813 241.171 15.776 242.328 15.776C244.307 15.776 245.866 16.2707 247.004 17.26C248.143 18.2493 248.712 19.6493 248.712 21.46V30H245.66L245.324 27.76C244.914 28.5067 244.335 29.1227 243.588 29.608C242.86 30.0933 241.918 30.336 240.76 30.336ZM241.572 27.536C242.599 27.536 243.392 27.2 243.952 26.528C244.531 25.856 244.895 25.0253 245.044 24.036H241.992C241.04 24.036 240.359 24.2133 239.948 24.568C239.538 24.904 239.332 25.324 239.332 25.828C239.332 26.3693 239.538 26.7893 239.948 27.088C240.359 27.3867 240.9 27.536 241.572 27.536ZM252.133 30V16.112H255.325L255.661 18.716C256.165 17.82 256.846 17.1107 257.704 16.588C258.582 16.0467 259.609 15.776 260.785 15.776V19.556H259.777C258.993 19.556 258.293 19.6773 257.677 19.92C257.061 20.1627 256.575 20.5827 256.221 21.18C255.885 21.7773 255.717 22.608 255.717 23.672V30H252.133ZM264.97 36.16L268.19 29.076H267.35L261.946 16.112H265.838L269.73 25.884L273.79 16.112H277.598L268.778 36.16H264.97Z" fill="#3448C5"/>
<path d="M39.6905 15.3851C38.6418 12.0994 36.5804 9.229 33.8009 7.18428C31.0214 5.13955 27.6661 4.02512 24.2147 4.00026C21.2966 3.98354 18.429 4.7616 15.9202 6.25083C13.4114 7.74005 11.3561 9.88417 9.97509 12.4528C7.43704 12.9073 5.11038 14.1592 3.33376 16.0264C1.55714 17.8937 0.423292 20.2787 0.0972367 22.8344C-0.228818 25.3901 0.269942 27.9831 1.52093 30.2359C2.77191 32.4888 4.70982 34.2839 7.0526 35.3601L7.3566 35.4978H7.37687V32.0552C5.76972 31.0695 4.51154 29.606 3.77868 27.8698C3.04583 26.1337 2.87502 24.2119 3.29021 22.3739C3.7054 20.5359 4.68576 18.8737 6.09391 17.6204C7.50205 16.3671 9.26738 15.5855 11.1425 15.3851L11.9937 15.296L12.3666 14.5305C13.4254 12.2884 15.1028 10.3949 17.2017 9.07264C19.3005 7.75037 21.7335 7.05428 24.2147 7.06618C27.1711 7.08702 30.0357 8.09491 32.353 9.92957C34.6702 11.7642 36.307 14.3203 37.0031 17.1914L37.295 18.3497H38.511C40.4713 18.3899 42.3382 19.1944 43.7128 20.5914C45.0875 21.9884 45.8609 23.8671 45.8679 25.8262C45.8679 28.6815 44.2182 31.0184 41.4092 32.201V35.4654L41.6118 35.4006C46.1273 33.9223 48.9323 30.2529 48.9323 25.8262C48.9137 23.264 47.9676 20.7952 46.2688 18.8759C44.5699 16.9566 42.2333 15.7166 39.6905 15.3851Z" fill="#3448C5"/>
<path d="M18.2722 35.1009L18.9451 35.7732C18.9633 35.7919 18.9756 35.8154 18.9805 35.841C18.9855 35.8666 18.9829 35.893 18.9729 35.9171C18.963 35.9412 18.9463 35.9619 18.9248 35.9766C18.9033 35.9914 18.8779 35.9995 18.8519 36H13.5419C12.8969 36 12.2783 35.744 11.8222 35.2882C11.3661 34.8325 11.1099 34.2144 11.1099 33.5699V23.2665C11.1099 23.2311 11.0958 23.1971 11.0707 23.172C11.0456 23.147 11.0116 23.1329 10.9761 23.1329H9.84118C9.81478 23.1331 9.78888 23.1256 9.76675 23.1112C9.74463 23.0968 9.72727 23.0761 9.71687 23.0519C9.70647 23.0276 9.70348 23.0008 9.70829 22.9749C9.7131 22.9489 9.72549 22.925 9.7439 22.9061L14.2513 18.4024C14.2637 18.3898 14.2786 18.3797 14.2949 18.3729C14.3113 18.3661 14.3288 18.3625 14.3465 18.3625C14.3643 18.3625 14.3818 18.3661 14.3982 18.3729C14.4145 18.3797 14.4293 18.3898 14.4418 18.4024L18.9451 22.9061C18.9633 22.9247 18.9756 22.9483 18.9805 22.9739C18.9855 22.9995 18.9829 23.0259 18.9729 23.05C18.963 23.0741 18.9463 23.0948 18.9248 23.1095C18.9033 23.1242 18.8779 23.1324 18.8519 23.1329H17.7007C17.6649 23.1329 17.6304 23.1468 17.6047 23.1718C17.5789 23.1967 17.564 23.2307 17.5629 23.2665V33.3917C17.5645 34.0326 17.8195 34.6469 18.2722 35.1009V35.1009Z" fill="#3448C5"/>
<path d="M28.2316 35.1008L28.9085 35.7731C28.9269 35.792 28.9393 35.816 28.9441 35.8419C28.9489 35.8678 28.9459 35.8946 28.9355 35.9189C28.9251 35.9432 28.9078 35.9638 28.8857 35.9782C28.8635 35.9926 28.8376 36.0002 28.8112 35.9999H23.5134C22.8684 35.9999 22.2498 35.7439 21.7937 35.2881C21.3376 34.8324 21.0814 34.2143 21.0814 33.5698V25.8706C21.0814 25.8348 21.0675 25.8004 21.0425 25.7747C21.0175 25.7489 20.9835 25.734 20.9476 25.7329H19.8005C19.7745 25.7324 19.7491 25.7243 19.7276 25.7096C19.7061 25.6948 19.6894 25.6742 19.6795 25.6501C19.6696 25.626 19.6669 25.5995 19.6719 25.5739C19.6768 25.5484 19.6891 25.5248 19.7073 25.5061L24.2106 21.0105C24.2231 20.9979 24.2379 20.9879 24.2542 20.9811C24.2706 20.9742 24.2882 20.9707 24.3059 20.9707C24.3236 20.9707 24.3412 20.9742 24.3575 20.9811C24.3739 20.9879 24.3887 20.9979 24.4011 21.0105L28.9085 25.498C28.9269 25.5169 28.9393 25.5409 28.9441 25.5668C28.9489 25.5928 28.9459 25.6196 28.9355 25.6438C28.9251 25.6681 28.9078 25.6887 28.8857 25.7031C28.8635 25.7175 28.8376 25.7251 28.8112 25.7248H27.6601C27.6242 25.7259 27.5902 25.7408 27.5652 25.7666C27.5402 25.7923 27.5263 25.8267 27.5263 25.8625V33.3916C27.5269 34.0319 27.7803 34.6462 28.2316 35.1008V35.1008Z" fill="#3448C5"/>
<path d="M38.1948 35.1009L38.8677 35.7732C38.8859 35.7918 38.8982 35.8154 38.9031 35.841C38.9081 35.8666 38.9054 35.893 38.8955 35.9171C38.8856 35.9412 38.8689 35.9619 38.8474 35.9766C38.8259 35.9913 38.8005 35.9995 38.7744 36H33.4605C32.8154 36 32.1968 35.744 31.7407 35.2882C31.2846 34.8325 31.0284 34.2144 31.0284 33.5699V28.4547C31.0284 28.4192 31.0143 28.3852 30.9892 28.3602C30.9642 28.3351 30.9301 28.321 30.8947 28.321H29.7597C29.7328 28.3213 29.7064 28.3135 29.684 28.2986C29.6617 28.2836 29.6443 28.2623 29.6342 28.2374C29.6242 28.2125 29.6219 28.1851 29.6276 28.1588C29.6334 28.1325 29.6469 28.1086 29.6665 28.0902L34.1738 23.5905C34.1859 23.578 34.2004 23.5681 34.2164 23.5613C34.2325 23.5545 34.2497 23.551 34.2671 23.551C34.2845 23.551 34.3017 23.5545 34.3177 23.5613C34.3337 23.5681 34.3482 23.578 34.3603 23.5905L38.8677 28.0902C38.8872 28.1086 38.9008 28.1325 38.9065 28.1588C38.9123 28.1851 38.91 28.2125 38.8999 28.2374C38.8899 28.2623 38.8725 28.2836 38.8501 28.2986C38.8277 28.3135 38.8014 28.3213 38.7744 28.321H37.6192C37.5838 28.321 37.5497 28.3351 37.5246 28.3602C37.4996 28.3852 37.4855 28.4192 37.4855 28.4547V33.3917C37.4871 34.0326 37.7421 34.6469 38.1948 35.1009V35.1009Z" fill="#3448C5"/>
</g>
<defs>
<clipPath id="clip0">
<rect width="277" height="40" fill="white"/>
</clipPath>
</defs>
</svg>
